<svg width="14" height="17" viewBox="0 0 14 17" fill="none" xmlns="http://www.w3.org/2000/svg">
<path d="M6.83406 14.926L7 15.0733L7.16594 14.926C8.9474 13.345 10.2764 11.8841 11.1617 10.56C12.0453 9.23851 12.5 8.03367 12.5 6.97C12.5 3.74286 10.0657 1.45 7 1.45C3.93428 1.45 1.5 3.74286 1.5 6.97C1.5 8.03367 1.95473 9.23851 2.83827 10.56C3.7236 11.8841 5.0526 13.345 6.83406 14.926ZM7 8.25C6.16869 8.25 5.5 7.59015 5.5 6.8C5.5 6.00985 6.16869 5.35 7 5.35C7.83131 5.35 8.5 6.00985 8.5 6.8C8.5 7.59015 7.83131 8.25 7 8.25ZM7 0.25C10.5517 0.25 13.75 2.88938 13.75 6.97C13.75 8.3116 13.1942 9.80254 12.0439 11.4498C10.9209 13.0582 9.24208 14.7996 7 16.6747C4.75792 14.7996 3.07914 13.0582 1.95607 11.4498C0.805828 9.80254 0.25 8.3116 0.25 6.97C0.25 2.88938 3.44831 0.25 7 0.25Z" stroke="#15C3D6" stroke-width="0.5"/>
</svg>
