<svg width="329" height="144" viewBox="0 0 329 144" fill="none" xmlns="http://www.w3.org/2000/svg">
<rect y="72" width="77" height="42" rx="3" fill="#4447E2"/>
<path d="M64.392 77.68C64.392 79.344 64.296 81.104 64.104 82.96H22.056C22.376 88.144 24.136 92.208 27.336 95.152C30.6 98.032 34.536 99.472 39.144 99.472C42.92 99.472 46.056 98.608 48.552 96.88C51.112 95.088 52.904 92.72 53.928 89.776H63.336C61.928 94.832 59.112 98.96 54.888 102.16C50.664 105.296 45.416 106.864 39.144 106.864C34.152 106.864 29.672 105.744 25.704 103.504C21.8 101.264 18.728 98.096 16.488 94C14.248 89.84 13.128 85.04 13.128 79.6C13.128 74.16 14.216 69.392 16.392 65.296C18.568 61.2 21.608 58.064 25.512 55.888C29.48 53.648 34.024 52.528 39.144 52.528C44.136 52.528 48.552 53.616 52.392 55.792C56.232 57.968 59.176 60.976 61.224 64.816C63.336 68.592 64.392 72.88 64.392 77.68ZM55.368 75.856C55.368 72.528 54.632 69.68 53.16 67.312C51.688 64.88 49.672 63.056 47.112 61.84C44.616 60.56 41.832 59.92 38.76 59.92C34.344 59.92 30.568 61.328 27.432 64.144C24.36 66.96 22.6 70.864 22.152 75.856H55.368ZM95.5073 97.936L111.827 53.392H121.139L100.499 106H90.3233L69.6833 53.392H79.0913L95.5073 97.936ZM177.736 77.68C177.736 79.344 177.64 81.104 177.448 82.96H135.4C135.72 88.144 137.48 92.208 140.68 95.152C143.944 98.032 147.88 99.472 152.488 99.472C156.264 99.472 159.4 98.608 161.896 96.88C164.456 95.088 166.248 92.72 167.272 89.776H176.68C175.272 94.832 172.456 98.96 168.232 102.16C164.008 105.296 158.76 106.864 152.488 106.864C147.496 106.864 143.016 105.744 139.048 103.504C135.144 101.264 132.072 98.096 129.832 94C127.592 89.84 126.472 85.04 126.472 79.6C126.472 74.16 127.56 69.392 129.736 65.296C131.912 61.2 134.952 58.064 138.856 55.888C142.824 53.648 147.368 52.528 152.488 52.528C157.48 52.528 161.896 53.616 165.736 55.792C169.576 57.968 172.52 60.976 174.568 64.816C176.68 68.592 177.736 72.88 177.736 77.68ZM168.712 75.856C168.712 72.528 167.976 69.68 166.504 67.312C165.032 64.88 163.016 63.056 160.456 61.84C157.96 60.56 155.176 59.92 152.104 59.92C147.688 59.92 143.912 61.328 140.776 64.144C137.704 66.96 135.944 70.864 135.496 75.856H168.712ZM214.899 52.432C221.299 52.432 226.483 54.384 230.451 58.288C234.419 62.128 236.403 67.696 236.403 74.992V106H227.763V76.24C227.763 70.992 226.451 66.992 223.827 64.24C221.203 61.424 217.619 60.016 213.075 60.016C208.467 60.016 204.787 61.456 202.035 64.336C199.347 67.216 198.003 71.408 198.003 76.912V106H189.267V53.392H198.003V60.88C199.731 58.192 202.067 56.112 205.011 54.64C208.019 53.168 211.315 52.432 214.899 52.432ZM261.329 60.592V91.6C261.329 94.16 261.873 95.984 262.961 97.072C264.049 98.096 265.937 98.608 268.625 98.608H275.057V106H267.185C262.321 106 258.673 104.88 256.241 102.64C253.809 100.4 252.593 96.72 252.593 91.6V60.592H245.777V53.392H252.593V40.144H261.329V53.392L275.057 53.392V60.592L261.329 60.592ZM304.266 106.864C300.234 106.864 296.618 106.192 293.418 104.848C290.218 103.44 287.69 101.52 285.834 99.088C283.978 96.592 282.954 93.744 282.762 90.544H291.786C292.042 93.168 293.258 95.312 295.434 96.976C297.674 98.64 300.586 99.472 304.17 99.472C307.498 99.472 310.122 98.736 312.042 97.264C313.962 95.792 314.922 93.936 314.922 91.696C314.922 89.392 313.898 87.696 311.85 86.608C309.802 85.456 306.634 84.336 302.346 83.248C298.442 82.224 295.242 81.2 292.746 80.176C290.314 79.088 288.202 77.52 286.41 75.472C284.682 73.36 283.818 70.608 283.818 67.216C283.818 64.528 284.618 62.064 286.218 59.824C287.818 57.584 290.09 55.824 293.034 54.544C295.978 53.2 299.338 52.528 303.114 52.528C308.938 52.528 313.642 54 317.226 56.944C320.81 59.888 322.73 63.92 322.986 69.04H314.25C314.058 66.288 312.938 64.08 310.89 62.416C308.906 60.752 306.218 59.92 302.826 59.92C299.69 59.92 297.194 60.592 295.338 61.936C293.482 63.28 292.554 65.04 292.554 67.216C292.554 68.944 293.098 70.384 294.186 71.536C295.338 72.624 296.746 73.52 298.41 74.224C300.138 74.864 302.506 75.6 305.514 76.432C309.29 77.456 312.362 78.48 314.73 79.504C317.098 80.464 319.114 81.936 320.778 83.92C322.506 85.904 323.402 88.496 323.466 91.696C323.466 94.576 322.666 97.168 321.066 99.472C319.466 101.776 317.194 103.6 314.25 104.944C311.37 106.224 308.042 106.864 304.266 106.864Z" fill="white"/>
</svg>
