<svg width="17" height="17" viewBox="0 0 17 17" fill="none" xmlns="http://www.w3.org/2000/svg">
<path d="M8.5 15.9375C7.029 15.9375 5.59104 15.5013 4.36795 14.6841C3.14486 13.8668 2.19158 12.7052 1.62865 11.3462C1.06572 9.98718 0.918435 8.49175 1.20541 7.04902C1.49239 5.60628 2.20074 4.28105 3.2409 3.2409C4.28105 2.20074 5.60628 1.49239 7.04902 1.20541C8.49175 0.918435 9.98718 1.06572 11.3462 1.62865C12.7052 2.19158 13.8668 3.14486 14.6841 4.36795C15.5013 5.59104 15.9375 7.029 15.9375 8.5C15.9375 10.4725 15.1539 12.3643 13.7591 13.7591C12.3643 15.1539 10.4725 15.9375 8.5 15.9375ZM8.5 2.125C7.23915 2.125 6.00661 2.49889 4.95824 3.19938C3.90988 3.89988 3.09278 4.89552 2.61027 6.0604C2.12776 7.22527 2.00152 8.50707 2.2475 9.7437C2.49348 10.9803 3.10064 12.1162 3.9922 13.0078C4.88376 13.8994 6.01967 14.5065 7.2563 14.7525C8.49293 14.9985 9.77473 14.8722 10.9396 14.3897C12.1045 13.9072 13.1001 13.0901 13.8006 12.0418C14.5011 10.9934 14.875 9.76086 14.875 8.5C14.875 6.80925 14.2034 5.18774 13.0078 3.9922C11.8123 2.79665 10.1908 2.125 8.5 2.125V2.125Z" fill="#15C3D6"/>
<path d="M10.9384 11.6875L7.96875 8.71781V3.71875H9.03125V8.27687L11.6875 10.9384L10.9384 11.6875Z" fill="#15C3D6"/>
</svg>
